<svg viewBox="0 0 1024 1024">
	<title>eraser</title>
	<path class="path1" d="M870.298 214.016l-161.485-124.16c-44.646-34.355-109.312-25.907-143.718 18.688l-430.080 557.926c-34.355 44.595-25.958 109.158 18.688 143.514l161.434 124.16c44.646 34.355 109.312 25.907 143.718-18.688l430.131-557.926c34.355-44.595 25.958-109.158-18.688-143.514zM437.658 843.11l-27.494 34.867c-7.782 10.086-19.712 15.872-32.717 15.872-6.349 0-15.821-1.485-24.832-8.397l-161.434-124.16c-8.602-6.605-14.080-16.23-15.514-27.136s1.434-21.606 8.038-30.157l27.494-34.867c7.782-10.086 19.712-15.923 32.768-15.923 6.349 0 15.821 1.485 24.832 8.397l161.485 124.16c8.602 6.605 14.080 16.23 15.514 27.136 1.331 10.906-1.536 21.606-8.141 30.208z"></path>
</svg>